{"glyphs":{":":{"x_min":0,"x_max":285,"ha":285,"o":"m 134 130 l 152 130 q 158 128 164 128 q 197 128 197 95 q 199 86 199 84 l 200 68 l 200 61 q 200 24 191 13 q 181 1 162 1 l 150 0 l 136 0 l 123 2 q 90 2 90 40 q 89 44 89 46 l 88 58 l 88 74 l 89 83 l 91 94 q 91 130 134 130 z m 200 446 l 200 425 l 200 423 l 200 418 q 198 409 198 405 q 198 370 162 370 l 152 368 l 134 368 q 128 370 125 370 q 91 370 91 405 l 90 407 l 90 409 l 88 427 l 88 438 q 88 476 100 487 q 111 498 139 498 l 151 498 l 167 496 q 182 496 191 487 q 200 478 200 446 z"},"$":{"x_min":0,"x_max":566,"ha":566,"o":"m 314 82 q 314 75 321 75 l 323 75 q 345 75 372 102 q 399 129 399 160 l 400 163 l 400 165 l 401 176 l 401 179 l 400 182 l 400 185 q 400 221 372 254 q 344 287 322 287 l 318 287 q 316 287 316 236 l 317 215 l 317 207 l 318 193 l 318 168 l 318 163 l 318 151 l 317 146 l 317 141 l 317 135 q 317 131 317 127 l 316 117 l 316 112 l 314 94 z m 171 534 l 171 517 q 171 482 195 449 q 219 416 241 416 q 245 416 245 477 l 245 559 l 250 604 q 250 612 245 612 l 243 612 q 223 612 197 586 q 171 560 171 534 z m 461 595 q 461 568 428 568 q 418 568 383 586 q 347 604 330 604 q 312 604 305 588 q 298 572 298 503 q 298 435 316 410 q 323 401 377 367 q 430 333 457 298 q 484 263 484 202 q 484 141 448 93 q 429 67 404 53 q 380 40 353 31 q 326 21 316 14 q 306 6 301 -14 l 298 -26 q 294 -47 292 -51 q 286 -62 259 -62 q 246 -62 239 -35 q 231 -8 222 2 q 214 13 176 26 q 137 40 106 66 q 76 93 76 120 q 76 151 113 151 q 123 151 163 125 q 203 99 229 99 q 256 99 261 124 q 267 149 267 245 q 267 296 252 313 q 248 320 188 358 q 128 396 107 429 q 86 463 86 522 q 86 581 131 627 q 157 655 199 669 q 242 684 243 685 q 253 691 267 724 q 276 747 297 747 q 333 747 443 636 q 461 619 461 595 z"},"?":{"x_min":0,"x_max":491,"ha":491,"o":"m 280 69 l 280 56 l 280 54 l 280 50 l 279 48 l 279 43 l 277 31 q 277 -5 229 -5 l 216 -5 l 201 -3 q 176 -3 176 17 q 174 22 174 24 l 173 32 l 173 37 l 172 42 l 172 60 l 174 77 q 174 116 215 116 l 227 117 l 239 117 l 251 115 q 280 115 280 69 z m 232 194 q 190 194 190 261 q 190 328 256 398 q 296 442 312 471 q 328 500 328 537 q 328 574 303 598 q 278 622 240 622 q 201 622 162 593 q 100 548 95 548 q 54 548 54 579 l 54 587 q 54 629 106 663 q 171 704 241 704 l 250 704 q 328 704 378 657 q 429 610 429 546 l 429 537 q 429 457 349 370 q 294 311 285 298 q 276 285 274 271 q 272 257 270 234 q 269 210 264 202 q 259 194 241 194 z"},"<":{"x_min":0,"x_max":586,"ha":586,"o":"m 95 259 q 63 277 63 304 q 63 330 103 353 q 114 360 253 433 q 392 507 441 534 q 491 562 501 562 q 511 562 511 537 q 511 497 466 468 q 422 438 299 377 q 176 315 175 306 q 175 303 295 244 q 416 186 463 154 q 510 123 510 77 q 510 59 497 59 q 484 59 435 86 q 385 114 255 177 q 126 240 95 259 z"},"'":{"x_min":0,"x_max":245,"ha":245,"o":"m 156 506 q 156 456 124 456 l 109 456 q 87 456 87 522 l 80 613 l 80 619 l 79 633 q 79 636 79 640 l 78 660 l 78 684 q 78 714 104 714 l 119 716 l 137 716 q 171 716 171 692 l 171 672 l 170 668 q 170 665 170 662 l 169 645 l 169 638 l 167 607 l 166 604 l 165 584 q 163 574 163 570 l 162 557 q 160 543 159 535 q 158 526 157 519 q 156 511 156 506 z"},"=":{"x_min":0,"x_max":592,"ha":592,"o":"m 540 238 l 540 208 q 540 193 520 191 q 500 189 356 189 l 100 189 q 69 189 63 195 q 57 200 57 217 l 57 232 q 57 255 73 258 q 82 260 307 260 l 363 261 l 408 261 l 414 260 l 486 261 q 540 261 540 238 z m 492 453 q 527 453 534 448 q 541 443 541 425 l 541 415 q 541 386 520 383 q 513 382 296 382 l 223 382 l 206 382 l 88 382 q 57 382 57 405 l 57 424 q 57 448 71 450 q 85 453 302 453 l 318 453 z"},"a":{"x_min":0,"x_max":522,"ha":522,"o":"m 343 234 q 343 249 327 249 q 260 249 193 206 q 146 176 146 136 l 146 121 q 146 99 164 84 q 182 70 208 70 l 211 70 q 270 70 311 111 q 340 140 340 177 q 342 189 342 193 l 343 211 z m 277 11 q 240 -9 200 -9 q 70 -9 70 127 q 70 254 265 305 q 306 315 315 321 q 346 337 346 367 q 346 396 322 417 q 298 438 257 438 q 216 438 171 414 q 126 389 102 389 q 69 389 69 419 l 69 428 q 69 454 127 481 q 185 509 247 509 l 272 509 q 344 509 390 470 q 437 432 437 365 l 437 354 l 423 126 q 423 105 428 80 q 434 54 434 36 q 434 18 426 10 q 418 2 389 2 q 360 2 345 20 q 331 38 325 38 q 320 38 302 26 q 284 14 277 11 z"},"L":{"x_min":0,"x_max":516,"ha":516,"o":"m 81 681 q 81 703 114 703 q 147 703 159 698 q 171 693 177 672 q 182 652 182 389 q 182 126 190 110 q 198 94 230 89 q 262 84 353 84 q 444 84 470 70 q 489 60 489 23 q 489 2 470 2 l 450 2 l 430 3 q 389 5 366 5 l 344 6 l 277 6 q 179 6 140 11 q 102 16 93 30 q 84 45 84 242 l 84 596 q 84 606 83 628 l 81 671 z"},"3":{"x_min":0,"x_max":564,"ha":564,"o":"m 81 595 q 81 602 90 616 q 107 642 161 668 q 216 695 287 695 l 303 695 q 371 695 414 655 q 457 615 457 561 q 457 507 440 474 q 423 441 396 415 q 369 388 369 385 q 369 382 406 358 q 491 305 491 218 l 491 202 q 491 120 430 59 q 368 -3 267 -3 l 251 -3 q 183 -3 123 27 q 63 57 63 90 q 63 123 97 123 q 112 123 165 101 q 217 78 267 78 q 317 78 355 112 q 394 146 394 200 q 394 254 354 289 q 330 311 274 324 q 219 337 218 338 q 203 348 203 370 q 203 394 250 408 q 357 441 357 542 q 357 576 329 594 q 300 612 261 612 q 222 612 169 591 q 117 570 109 570 q 81 570 81 595 z"},";":{"x_min":0,"x_max":292,"ha":292,"o":"m 203 42 q 203 -7 180 -50 q 156 -94 132 -114 q 107 -134 95 -134 l 92 -134 q 76 -134 76 -116 l 76 -113 q 76 -109 89 -92 q 101 -76 112 -56 q 123 -36 123 -18 q 123 0 115 7 q 107 15 103 24 q 98 34 98 69 q 98 103 107 116 q 116 129 144 129 l 160 129 q 188 129 197 120 q 205 111 205 87 l 205 61 q 203 51 203 42 z m 130 370 q 98 370 98 401 l 96 408 l 95 423 l 95 428 l 94 433 l 94 435 l 95 437 l 96 455 q 97 458 97 459 q 97 497 132 497 q 136 498 138 498 l 146 499 l 160 499 q 182 499 193 491 q 205 483 205 459 l 206 455 l 206 451 l 207 439 l 207 432 l 206 430 l 205 412 q 204 410 204 408 q 204 370 167 370 l 156 369 l 142 369 l 140 369 l 136 369 q 132 370 130 370 z"},"J":{"x_min":0,"x_max":456,"ha":456,"o":"m 249 629 q 249 675 264 688 q 279 702 315 702 q 351 702 357 688 q 376 648 376 569 l 376 559 l 375 548 q 375 538 375 527 l 373 485 q 372 463 372 442 l 371 398 l 371 321 l 371 288 l 371 254 l 370 243 q 370 232 370 220 q 370 59 267 10 q 229 -7 189 -7 l 169 -7 q 109 -7 57 27 q 22 49 22 75 l 22 84 q 22 119 63 119 q 77 119 112 103 q 147 87 173 87 q 228 87 254 155 q 273 203 273 323 q 273 442 266 496 q 249 629 249 629 z"},"V":{"x_min":0,"x_max":615,"ha":615,"o":"m 21 673 q 21 692 52 692 q 83 692 105 672 q 128 652 143 621 q 158 589 232 373 q 307 157 310 157 q 319 157 391 363 q 462 568 481 611 q 519 690 565 691 q 595 691 595 675 q 595 664 544 536 q 494 407 438 248 q 382 88 370 57 q 357 26 345 15 q 333 5 310 5 q 287 5 272 15 q 257 25 239 73 q 220 120 167 272 q 115 424 68 544 q 21 665 21 673 z"},"\"":{"x_min":0,"x_max":397,"ha":397,"o":"m 111 458 l 99 458 q 76 458 76 501 l 75 511 l 74 515 l 72 545 l 72 548 l 69 589 q 69 592 69 596 l 67 619 q 67 623 67 626 l 67 632 l 67 643 l 66 663 l 66 683 q 66 717 92 717 l 98 718 l 109 718 l 121 718 q 157 718 157 696 l 157 673 l 156 669 l 156 659 l 156 653 l 151 595 q 150 585 149 578 q 148 565 147 555 q 146 545 145 533 q 144 521 143 515 l 141 498 q 141 458 111 458 z m 285 458 l 268 458 q 249 458 249 487 l 247 501 l 246 518 q 246 521 246 524 l 243 555 l 243 558 l 241 585 l 241 591 l 239 615 q 239 618 239 622 l 239 628 l 239 635 l 238 642 q 238 645 238 648 l 238 659 l 238 686 q 238 718 275 718 l 296 718 q 305 716 310 716 q 329 716 329 696 l 329 676 l 328 673 l 328 663 q 328 659 328 656 l 324 605 l 323 592 q 321 580 320 571 q 319 562 319 555 q 318 548 317 536 q 315 523 315 518 l 313 501 q 313 458 285 458 z"},"7":{"x_min":0,"x_max":559,"ha":559,"o":"m 68 641 l 68 651 q 68 678 79 685 q 90 692 127 692 l 138 692 l 230 688 l 326 688 q 445 688 472 684 q 499 679 499 659 l 499 649 q 499 605 233 12 q 224 -10 195 -10 l 185 -10 q 146 -10 146 19 q 146 80 264 331 q 381 583 381 589 q 381 604 262 604 l 169 602 q 68 602 68 641 z"},"S":{"x_min":0,"x_max":562,"ha":562,"o":"m 83 150 q 94 150 156 113 q 219 77 277 77 q 336 77 373 104 q 409 130 409 179 q 409 227 370 261 q 347 280 249 326 q 150 373 116 408 q 68 458 68 521 q 68 600 121 649 q 149 675 189 689 q 229 704 269 704 l 286 704 q 359 704 423 672 q 487 640 487 604 q 487 567 450 567 q 443 567 386 595 q 330 623 277 623 q 224 623 195 596 q 165 569 165 530 q 165 491 209 456 q 233 438 324 396 q 416 354 453 318 q 508 264 508 184 q 508 104 446 50 q 383 -3 279 -3 l 262 -3 q 188 -3 109 41 q 48 74 48 112 q 48 150 83 150 z"},"}":{"x_min":0,"x_max":366,"ha":366,"o":"m 223 19 q 223 -103 139 -145 q 110 -160 78 -160 l 68 -160 q 46 -160 46 -142 q 46 -111 75 -95 q 121 -68 130 -49 q 145 -21 145 41 l 144 77 q 142 115 142 127 q 142 186 157 214 q 171 242 182 252 q 193 262 210 274 q 227 286 227 289 q 227 292 215 300 q 203 308 188 320 q 172 333 157 362 q 143 391 143 463 l 145 500 q 146 538 146 550 q 146 600 133 621 q 121 642 101 655 l 83 665 q 63 676 55 686 q 46 696 46 718 q 46 735 68 735 l 79 735 q 116 735 148 716 q 180 698 198 670 q 224 630 224 531 l 224 519 l 222 494 q 221 457 221 444 q 221 391 236 366 q 250 342 277 330 q 316 313 316 287 q 316 261 284 248 q 251 235 236 208 q 220 180 220 106 l 221 94 q 223 33 223 19 z"},"Z":{"x_min":0,"x_max":584,"ha":584,"o":"m 398 600 q 398 620 267 620 q 136 620 104 627 q 59 638 59 665 q 59 691 67 696 q 76 701 97 701 l 112 701 l 127 700 l 175 698 l 208 697 l 225 697 l 360 697 q 494 697 508 693 q 534 686 534 659 q 534 632 357 374 q 181 116 181 102 q 181 83 323 83 q 466 83 494 77 q 521 71 532 60 q 543 50 543 26 q 543 1 507 1 l 378 6 l 226 6 q 95 6 77 10 q 45 16 45 44 q 45 72 94 147 q 143 222 270 404 q 398 586 398 600 z"},"x":{"x_min":0,"x_max":506,"ha":506,"o":"m 245 186 q 244 186 198 109 q 152 33 135 17 q 117 0 65 0 q 49 0 49 10 q 49 20 120 134 q 192 249 192 259 q 192 270 127 380 q 62 490 62 501 q 62 512 108 512 l 120 512 q 148 512 173 482 q 185 469 219 408 q 253 348 259 348 q 261 348 299 411 q 337 474 349 487 q 369 512 405 512 q 441 512 441 499 q 440 493 378 393 q 315 293 315 261 l 391 133 q 457 22 457 11 q 457 0 415 0 q 373 0 355 17 q 338 35 294 110 q 250 186 245 186 z"},")":{"x_min":0,"x_max":353,"ha":353,"o":"m 274 307 l 274 274 q 274 62 142 -113 q 109 -156 86 -156 l 78 -156 q 54 -156 54 -135 q 54 -125 94 -63 q 133 0 152 56 q 187 162 187 287 q 187 480 109 617 q 52 716 52 717 l 52 725 q 52 737 77 737 l 85 737 q 108 737 148 685 q 229 580 260 433 q 274 367 274 307 z"},"&":{"x_min":0,"x_max":693,"ha":693,"o":"m 294 77 l 302 77 q 342 77 384 105 q 405 119 405 129 l 405 132 q 405 139 386 157 q 368 176 340 209 q 312 242 286 280 q 260 318 253 318 l 247 318 q 219 318 186 266 q 167 236 167 200 l 167 196 q 167 145 205 111 q 242 77 294 77 z m 259 545 q 259 519 288 460 q 298 441 304 441 l 306 441 q 309 441 332 459 q 354 477 370 505 q 385 533 385 555 l 385 568 q 385 595 369 614 q 352 633 332 633 l 318 633 q 297 633 278 612 q 260 590 260 568 l 259 563 z m 557 310 q 566 310 578 299 q 589 289 589 275 q 589 262 579 232 q 569 201 569 170 q 569 138 583 120 q 597 102 625 77 q 654 53 654 42 q 654 16 613 16 q 587 16 551 34 q 515 53 497 53 q 479 53 458 45 q 436 38 366 27 q 295 17 261 17 q 227 17 190 31 q 122 59 93 123 q 78 158 78 192 l 78 207 q 78 277 157 350 q 210 398 210 418 q 210 427 199 453 q 188 479 177 507 q 167 536 167 573 q 167 628 205 666 q 243 703 296 703 l 310 703 q 374 703 418 658 q 461 613 461 552 q 461 490 396 429 q 357 393 357 358 q 357 324 405 269 q 433 237 465 237 q 484 237 508 273 q 531 310 557 310 z"},"_":{"x_min":0,"x_max":530,"ha":530,"o":"m 4 -119 l 4 -98 q 4 -82 146 -82 l 503 -82 q 527 -82 527 -98 l 527 -124 q 527 -140 321 -140 l 29 -140 q 4 -140 4 -119 z"},"v":{"x_min":0,"x_max":499,"ha":499,"o":"m 19 494 q 19 503 47 503 q 75 503 94 491 q 114 479 131 448 q 147 417 198 278 q 248 138 253 138 q 259 138 312 281 q 366 424 377 446 q 408 503 455 503 q 479 503 479 492 q 479 446 305 47 q 287 4 259 4 l 249 4 q 213 4 192 50 q 184 69 138 193 q 92 317 55 397 q 19 478 19 494 z"},"O":{"x_min":0,"x_max":726,"ha":726,"o":"m 192 334 q 192 274 207 224 q 222 174 244 142 q 292 72 368 72 q 368 72 368 72 q 443 72 493 148 q 543 224 543 352 l 543 360 q 543 479 497 555 q 473 592 441 611 q 409 631 376 631 l 369 631 q 298 631 249 564 q 224 531 208 479 q 193 426 193 377 l 192 360 z m 89 325 l 89 361 q 90 431 110 498 q 151 632 249 686 q 303 716 370 716 l 380 716 q 495 716 571 618 q 607 572 627 505 q 646 438 646 365 l 646 354 q 646 192 569 90 q 491 -13 368 -13 q 244 -13 171 77 q 132 125 111 192 q 89 259 89 325 z"},"(":{"x_min":0,"x_max":354,"ha":354,"o":"m 302 714 q 302 710 262 642 q 222 573 196 493 q 170 414 170 289 q 170 99 248 -39 q 303 -136 303 -139 q 303 -157 276 -157 q 249 -157 221 -125 q 129 -19 94 142 q 79 211 79 264 q 79 265 79 267 l 79 310 q 79 373 96 447 q 133 604 220 704 q 250 737 276 737 q 302 737 302 714 z"},"C":{"x_min":0,"x_max":651,"ha":651,"o":"m 367 619 q 270 619 214 543 q 158 467 158 332 q 158 285 173 236 q 221 83 363 83 q 364 83 364 83 q 418 83 488 118 q 557 153 563 153 q 598 153 598 124 q 598 83 522 42 q 447 1 367 1 l 351 1 q 288 2 232 25 q 177 49 138 94 q 55 189 55 341 l 55 358 q 55 424 76 490 q 122 629 251 680 q 301 700 375 700 q 449 700 526 662 q 559 646 576 626 q 592 607 592 591 q 592 576 581 566 q 569 557 562 557 q 556 557 487 588 q 418 619 367 619 z"},"W":{"x_min":0,"x_max":877,"ha":877,"o":"m 55 686 q 84 686 104 666 q 123 646 138 606 q 153 565 200 381 q 247 196 258 196 q 269 196 321 380 l 350 479 q 378 583 384 603 l 392 626 q 403 654 416 663 q 429 672 457 672 q 480 672 496 624 l 523 526 q 534 488 544 452 q 615 191 628 191 q 635 191 689 392 q 743 593 758 628 q 774 664 792 675 q 811 687 830 687 q 850 687 850 667 q 850 653 828 579 q 806 505 754 318 l 741 269 q 729 224 722 200 q 716 176 704 131 q 692 85 688 71 q 670 21 631 21 q 598 21 567 90 q 553 123 506 280 l 448 475 l 440 492 q 435 492 376 303 q 318 114 309 89 q 299 64 281 43 q 263 22 242 22 q 220 22 208 36 q 195 50 186 81 q 28 614 28 658 q 28 686 55 686 z"},"A":{"x_min":0,"x_max":643,"ha":643,"o":"m 400 279 l 400 282 q 400 311 324 553 l 322 560 l 319 570 q 317 570 310 544 q 304 518 273 413 l 263 380 q 255 345 244 314 q 232 284 232 280 l 232 275 q 232 269 245 269 l 264 269 q 274 270 282 270 l 334 271 q 400 271 400 279 z m 590 44 l 590 35 q 590 14 555 14 q 521 14 496 46 q 481 64 458 120 q 436 176 427 182 q 413 193 313 193 l 291 193 l 280 193 q 269 192 257 192 q 216 192 201 177 q 194 171 172 116 q 150 62 131 38 q 112 14 84 14 l 75 14 q 51 14 51 30 l 51 39 q 51 45 142 313 q 233 581 264 657 q 284 705 324 705 q 364 705 382 662 q 400 618 449 471 q 499 324 544 192 q 590 60 590 44 z"},"f":{"x_min":0,"x_max":354,"ha":354,"o":"m 282 654 q 208 654 208 562 q 208 532 258 502 q 294 481 294 449 q 294 438 264 424 q 233 409 222 385 q 207 352 207 250 l 206 228 l 205 137 q 205 32 197 16 q 189 0 152 0 l 142 0 q 120 0 116 14 q 112 28 112 188 q 112 348 106 375 q 101 401 77 424 q 53 446 53 456 q 53 477 70 495 q 104 531 108 539 q 112 547 122 599 q 138 690 205 720 q 237 734 270 734 l 292 734 q 357 734 357 695 q 357 671 334 660 q 323 654 282 654 z"},"Q":{"x_min":0,"x_max":731,"ha":731,"o":"m 193 367 l 193 330 q 193 278 207 229 q 233 139 299 98 q 331 79 361 79 q 392 79 401 88 q 410 97 416 121 q 427 171 477 188 q 501 196 515 215 q 545 260 545 369 l 544 377 q 544 482 500 553 q 478 587 447 607 q 416 626 381 626 l 366 626 q 298 626 245 550 q 221 517 207 465 q 193 414 193 367 z m 550 46 q 550 26 608 -23 q 641 -51 641 -70 q 641 -80 618 -80 q 506 -80 398 -45 q 290 -10 208 63 q 153 112 121 193 q 89 275 89 368 l 89 396 q 89 460 109 519 q 148 637 235 682 q 287 708 344 708 l 356 708 q 417 708 468 684 q 576 631 623 499 q 647 427 647 355 l 647 328 q 647 195 578 94 q 550 53 550 46 z"},"w":{"x_min":0,"x_max":732,"ha":732,"o":"m 40 500 l 54 500 q 95 500 123 445 q 136 419 175 289 q 214 159 226 159 q 234 159 274 292 q 314 425 321 445 l 327 462 q 342 495 378 495 q 402 495 414 468 q 422 451 466 305 q 509 159 521 159 q 528 159 570 292 q 611 426 619 441 q 647 499 683 499 q 710 499 710 485 q 710 472 689 414 q 667 355 622 209 q 576 62 573 54 q 558 12 515 12 q 491 12 465 68 q 453 97 412 219 q 371 341 368 341 q 360 341 321 220 q 282 100 264 63 q 238 13 214 13 q 174 13 157 58 q 156 62 129 148 l 118 185 q 82 300 52 386 q 21 473 21 488 q 21 500 40 500 z"},"-":{"x_min":0,"x_max":361,"ha":361,"o":"m 281 318 q 308 318 313 313 q 319 309 319 291 l 319 269 q 319 246 304 243 q 300 242 179 242 l 168 242 l 154 241 l 71 241 q 44 241 44 269 l 44 287 q 44 312 56 316 q 63 318 188 318 l 249 318 z"},"E":{"x_min":0,"x_max":559,"ha":559,"o":"m 435 698 q 489 698 489 662 q 489 642 453 634 q 417 626 329 624 q 241 621 223 609 q 189 588 189 476 q 189 447 211 435 q 224 428 320 421 q 416 414 423 411 q 438 404 438 371 q 438 339 412 330 q 396 325 315 319 q 233 312 213 303 q 183 289 183 249 q 183 176 197 125 q 204 102 218 94 q 232 85 326 82 q 419 79 452 74 q 501 65 501 41 q 501 18 471 10 q 455 6 354 6 l 301 6 q 193 6 127 22 q 86 33 86 67 l 86 83 q 86 112 95 222 q 103 332 103 385 q 103 438 96 519 q 88 599 88 629 q 88 659 99 667 q 109 676 138 681 q 227 698 400 698 z"},"s":{"x_min":0,"x_max":461,"ha":461,"o":"m 394 445 q 394 411 350 411 q 350 411 350 411 q 344 411 305 427 q 265 443 231 443 q 198 443 174 430 q 150 416 150 387 q 150 357 183 335 q 197 325 269 295 q 340 265 369 238 q 411 199 411 144 l 411 131 q 411 78 363 38 q 314 -3 238 -3 l 225 -3 q 155 -3 101 24 q 45 51 45 83 q 45 114 77 114 q 77 114 78 114 q 94 114 139 91 q 184 67 229 67 q 274 67 296 87 q 319 106 319 137 q 319 167 281 192 q 271 199 200 229 q 130 260 104 283 q 61 323 61 383 q 61 442 109 478 q 158 514 226 514 l 239 514 q 294 514 344 492 q 394 471 394 445 z"},">":{"x_min":0,"x_max":586,"ha":586,"o":"m 415 306 q 415 313 287 379 q 159 445 118 472 q 78 499 78 536 l 78 544 q 78 562 84 562 q 118 562 482 354 q 521 331 521 304 q 521 277 484 255 q 425 221 325 175 q 225 129 164 94 q 104 59 91 59 l 85 59 q 78 59 78 78 l 78 86 q 78 123 125 154 q 152 171 262 228 l 298 246 q 316 255 366 280 q 415 304 415 306 z"},"l":{"x_min":0,"x_max":270,"ha":270,"o":"m 77 672 l 77 696 q 77 719 88 726 q 99 733 131 733 l 146 733 q 171 733 176 688 q 177 672 177 448 l 178 422 l 178 335 l 178 327 q 178 327 178 310 l 179 301 q 179 301 179 284 l 179 259 q 179 259 180 226 q 180 199 189 126 q 198 54 198 52 l 198 36 q 198 10 190 4 q 181 -1 146 -1 l 138 -1 q 113 -1 104 9 q 96 19 90 53 q 85 87 85 256 l 85 507 q 85 575 81 619 q 77 664 77 672 z"},"8":{"x_min":0,"x_max":566,"ha":566,"o":"m 280 75 l 300 75 q 345 75 376 106 q 407 137 407 174 l 407 178 q 407 229 370 266 q 319 317 266 317 l 254 317 q 224 317 188 272 q 163 242 163 204 l 163 188 q 163 146 198 110 q 233 75 280 75 z m 390 521 l 390 534 q 389 541 389 543 q 389 576 356 598 q 324 621 289 621 l 282 621 q 240 621 211 595 q 182 570 182 538 l 182 524 q 182 488 219 454 q 257 421 296 421 l 302 421 q 330 421 360 455 q 390 488 390 521 z m 289 709 q 367 709 419 663 q 470 617 471 542 q 471 468 411 404 q 386 377 385 375 q 385 373 399 363 q 439 334 464 293 q 489 251 489 199 l 489 187 q 489 109 432 49 q 376 -11 284 -11 l 273 -11 q 193 -11 138 40 q 112 64 96 99 q 81 135 81 169 l 81 191 q 81 270 152 339 q 181 367 181 370 q 181 373 171 381 l 164 388 q 100 440 100 523 q 100 562 115 597 q 129 633 154 657 q 211 709 289 709 z"},"\\":{"x_min":0,"x_max":408,"ha":408,"o":"m 306 -20 q 238 133 54 629 q 23 712 23 717 q 23 727 55 727 q 86 727 101 693 q 163 552 215 408 q 267 265 327 115 q 386 -34 386 -46 q 386 -58 354 -58 q 322 -58 306 -20 z"},"e":{"x_min":0,"x_max":533,"ha":533,"o":"m 381 333 l 381 338 q 381 385 347 411 q 313 438 277 438 l 268 438 q 227 438 190 405 q 153 372 153 328 l 153 325 q 153 317 175 317 l 193 317 l 196 317 l 269 320 q 381 320 381 333 z m 474 101 q 474 66 422 38 q 355 1 284 1 l 272 1 q 175 1 113 67 q 87 94 69 137 q 51 180 51 223 l 51 247 q 51 297 71 347 q 110 443 192 483 q 245 510 298 510 l 309 510 q 386 510 430 459 q 474 409 474 349 q 474 290 438 274 q 417 265 322 257 l 202 246 q 149 236 149 208 q 149 149 189 114 q 229 79 275 79 q 321 79 379 103 q 437 126 452 126 q 474 126 474 101 z"},"b":{"x_min":0,"x_max":560,"ha":560,"o":"m 398 291 q 398 351 366 394 q 335 437 292 437 l 287 437 q 266 437 243 423 q 220 409 208 388 q 185 348 185 256 l 185 250 l 185 245 q 185 240 185 234 l 187 203 q 187 198 187 193 q 187 137 211 104 q 234 72 273 72 l 291 72 q 309 72 332 86 q 354 100 370 128 q 399 184 399 252 l 399 274 q 398 286 398 291 z m 179 479 q 184 479 197 485 q 247 511 292 511 q 384 511 439 438 q 493 365 493 243 l 493 231 q 493 125 439 62 q 385 -2 312 -2 q 280 -2 236 16 q 192 35 188 35 q 184 35 169 28 q 154 21 146 21 q 107 21 99 48 q 93 64 93 166 q 93 267 85 390 q 77 513 77 535 l 75 579 l 73 657 l 73 669 q 73 707 84 719 q 96 730 122 730 l 132 730 q 155 730 162 715 q 169 699 169 675 l 166 540 q 166 479 179 479 z"},"%":{"x_min":0,"x_max":803,"ha":803,"o":"m 682 164 q 682 209 665 242 q 648 275 622 275 l 614 275 q 596 275 576 248 q 557 220 557 184 l 557 181 l 556 177 l 556 167 l 556 147 q 556 110 572 78 q 588 45 612 45 l 623 45 q 643 45 661 73 q 680 101 680 133 q 681 140 681 143 l 682 160 z m 271 531 q 271 567 255 599 q 238 632 212 632 l 207 632 q 180 632 163 598 q 146 563 146 520 l 146 510 l 146 506 l 146 500 l 147 487 q 147 455 165 428 q 183 402 204 402 l 209 402 q 229 402 249 428 q 269 454 269 491 q 270 497 270 500 l 271 514 z m 743 179 l 743 162 q 743 87 705 39 q 667 -8 610 -8 l 606 -8 q 554 -8 517 38 q 480 84 480 157 l 480 180 q 480 250 518 297 q 556 345 608 345 l 622 345 q 674 345 709 295 q 743 245 743 179 z m 172 -5 q 172 0 200 46 q 533 589 578 654 q 601 687 630 687 q 659 687 659 676 q 659 646 263 31 q 233 -16 202 -16 q 172 -16 172 -5 z m 345 541 l 345 518 q 345 442 308 389 q 270 336 216 336 l 207 336 q 149 336 112 390 q 75 444 75 522 l 75 527 l 76 533 q 76 604 113 650 q 151 696 206 696 l 211 696 q 270 696 307 652 q 345 608 345 541 z"},"m":{"x_min":0,"x_max":814,"ha":814,"o":"m 160 475 l 168 463 q 179 446 182 446 q 195 446 234 465 q 272 483 313 483 q 377 483 420 444 q 444 423 454 423 q 457 423 487 448 q 517 473 545 485 q 573 498 611 498 q 648 498 679 477 q 710 456 729 404 q 748 353 748 131 l 748 90 l 748 69 q 748 33 736 22 q 725 12 702 12 q 680 12 670 26 q 660 40 660 101 l 660 119 q 658 177 658 218 q 658 341 638 382 q 619 422 569 422 q 546 422 524 406 q 501 391 490 363 q 478 335 472 256 q 466 177 462 122 q 459 68 458 61 q 451 33 409 33 q 367 33 359 48 q 351 62 344 207 q 336 351 331 370 q 316 424 278 424 q 250 424 223 408 q 196 392 179 356 q 162 320 159 196 q 156 71 152 47 q 147 23 138 18 q 129 13 110 13 q 91 13 80 23 q 69 33 69 72 l 69 174 q 69 354 83 447 q 86 470 90 476 q 100 492 124 492 q 147 492 160 475 z"},"#":{"x_min":0,"x_max":604,"ha":604,"o":"m 359 359 q 359 367 367 391 q 375 416 375 421 l 375 423 q 375 431 343 431 l 331 431 l 328 430 l 320 430 l 314 430 l 309 430 l 282 427 q 246 427 246 369 l 225 272 q 225 267 234 267 l 244 267 l 247 268 l 267 270 q 276 271 281 271 l 287 272 l 308 274 q 337 274 344 286 q 359 314 359 359 z m 516 235 q 516 209 476 204 q 421 196 409 182 q 396 169 385 109 q 375 49 370 38 q 358 6 330 6 q 302 6 302 27 q 302 39 314 101 q 326 163 326 177 q 326 197 246 197 q 224 197 214 176 q 211 168 201 108 q 191 49 178 26 q 166 3 140 3 q 114 3 114 18 q 114 23 125 81 q 136 138 136 159 q 136 180 126 189 l 115 194 l 87 201 q 62 209 62 229 q 62 249 80 260 q 85 264 116 270 q 147 277 159 290 q 181 314 181 383 q 181 410 167 417 q 161 421 138 424 q 114 427 109 429 q 91 435 91 458 q 91 480 110 489 q 116 492 154 498 q 191 503 203 522 q 209 534 222 600 q 235 666 239 673 q 250 691 276 691 q 302 691 302 659 q 302 648 291 594 q 280 539 280 523 q 280 502 344 502 q 376 502 384 510 q 392 517 402 575 q 413 633 421 655 q 433 687 461 687 q 489 687 489 669 q 489 660 480 616 q 471 572 471 550 q 471 528 479 517 q 487 506 515 497 q 542 487 542 465 q 542 440 505 431 q 446 417 440 406 q 424 376 424 308 q 424 289 430 284 q 437 279 466 274 q 496 270 501 267 q 516 259 516 235 z"},",":{"x_min":0,"x_max":282,"ha":282,"o":"m 115 -15 q 115 -9 104 6 q 92 22 91 36 q 91 51 91 54 l 90 62 l 90 69 q 90 100 100 112 q 110 124 137 124 l 154 124 q 179 124 189 116 q 199 107 199 85 l 199 55 q 198 43 198 36 q 198 -26 164 -75 q 118 -142 85 -142 q 69 -142 69 -122 l 69 -120 q 69 -114 80 -101 q 115 -59 115 -15 z"},"n":{"x_min":0,"x_max":550,"ha":550,"o":"m 488 39 q 488 15 464 15 l 453 15 q 412 15 401 47 q 389 80 389 205 q 389 330 367 382 q 331 426 291 435 q 260 435 229 414 q 199 394 181 355 q 164 317 164 191 q 164 64 151 40 q 139 16 95 16 q 65 16 65 45 l 65 151 q 65 169 69 220 q 73 271 73 365 q 73 458 78 473 q 85 494 116 494 q 147 494 158 481 q 162 476 168 462 q 174 447 179 447 q 186 447 209 463 q 233 479 242 483 q 286 505 328 505 q 413 505 452 442 q 481 395 481 251 l 482 239 l 482 226 q 483 212 483 200 l 488 98 z"},"h":{"x_min":0,"x_max":550,"ha":550,"o":"m 464 26 q 464 6 417 6 q 387 6 377 42 q 370 69 370 217 q 370 365 360 390 q 344 428 300 428 q 277 428 248 408 q 218 387 201 350 q 185 312 185 187 q 185 61 180 40 q 172 5 147 5 q 103 5 95 27 q 92 34 92 207 q 92 380 85 490 l 83 549 q 81 592 80 606 l 77 662 l 77 675 q 77 698 88 707 q 99 716 136 716 q 159 716 166 696 q 173 675 173 590 l 171 495 q 171 481 183 481 q 184 481 198 488 q 252 515 303 515 l 304 515 q 354 515 386 493 q 419 472 436 439 q 462 389 462 177 l 461 146 q 461 130 461 114 l 464 40 z"},"z":{"x_min":0,"x_max":485,"ha":485,"o":"m 83 510 l 94 510 l 143 508 q 180 507 193 507 l 296 507 q 402 507 412 505 q 438 501 438 482 q 438 452 411 414 q 385 376 345 325 q 305 274 239 186 q 173 97 173 90 q 173 77 277 77 q 381 77 414 67 q 446 58 446 27 q 446 1 416 1 l 404 1 q 396 1 380 2 l 356 3 q 319 5 306 5 l 228 5 l 189 5 q 73 5 62 7 q 41 11 41 38 q 41 65 174 240 q 306 414 306 426 q 306 435 205 435 q 104 435 78 445 q 52 456 52 484 q 52 510 83 510 z"},"B":{"x_min":0,"x_max":612,"ha":612,"o":"m 215 315 q 189 315 189 283 l 189 131 q 189 105 198 100 q 206 95 236 95 l 282 95 q 364 95 407 122 q 450 150 450 198 l 450 211 q 450 261 407 289 q 364 316 288 316 l 241 316 l 237 316 l 228 316 q 219 315 215 315 z m 222 606 q 197 606 191 591 q 188 583 188 511 l 188 454 q 188 430 192 423 q 197 417 218 417 l 250 417 l 253 417 l 291 418 l 307 419 q 355 419 388 449 q 420 479 420 515 l 420 523 l 420 527 q 420 561 390 583 q 361 605 324 605 q 311 607 308 607 l 287 608 l 261 608 l 257 607 l 241 607 l 233 607 q 226 606 222 606 z m 501 527 q 501 456 453 409 q 421 377 421 375 q 421 374 454 352 q 536 295 536 206 q 536 151 517 111 q 478 30 387 10 q 348 1 282 1 l 262 1 l 251 1 l 241 1 q 135 1 117 17 q 106 25 106 106 q 106 188 104 244 l 102 300 q 99 345 99 355 l 99 366 q 99 367 101 428 q 104 490 104 584 q 104 678 110 686 q 122 700 180 700 l 220 701 l 230 701 q 241 702 250 702 l 292 703 q 398 703 446 663 q 478 636 489 603 q 501 569 501 527 z"},"K":{"x_min":0,"x_max":627,"ha":627,"o":"m 211 417 q 234 417 374 598 q 414 650 429 664 q 463 694 494 694 q 526 694 526 684 q 526 675 422 548 q 318 421 318 396 q 318 371 444 193 q 571 16 571 11 q 571 6 527 6 q 483 6 455 36 q 427 65 352 180 q 277 295 250 295 q 228 295 216 271 q 204 247 204 174 l 206 123 q 206 105 206 71 q 206 4 164 4 q 116 4 107 39 q 92 101 92 375 l 92 393 q 92 623 106 673 q 114 699 150 699 q 187 699 196 683 q 204 666 204 607 l 198 434 q 198 417 211 417 z"},"R":{"x_min":0,"x_max":616,"ha":616,"o":"m 190 407 q 190 387 216 387 l 262 387 l 275 388 l 293 389 q 348 389 389 421 q 430 452 430 501 l 430 519 q 430 559 395 585 q 361 611 297 611 l 271 611 q 208 611 199 598 q 191 584 191 485 l 190 469 z m 104 440 l 105 469 q 107 526 107 602 q 107 679 117 688 q 133 704 275 704 l 289 704 q 348 704 388 694 q 469 675 499 596 q 513 560 513 510 q 513 425 444 363 q 400 324 400 316 q 400 309 463 187 q 526 66 540 43 q 554 20 554 19 q 554 8 515 8 q 475 8 451 35 q 440 47 398 128 q 356 209 323 250 q 291 291 253 291 q 215 291 208 269 q 205 260 205 153 q 205 45 197 25 q 189 4 156 4 q 124 4 115 15 q 106 26 106 97 l 105 184 l 104 199 l 104 213 q 103 227 103 242 l 102 271 q 102 285 102 299 l 100 341 l 100 355 l 101 370 l 102 384 q 103 412 103 412 q 103 413 104 440 z"},"T":{"x_min":0,"x_max":564,"ha":564,"o":"m 439 702 q 479 702 495 695 q 511 687 511 660 q 511 633 493 625 q 482 619 417 613 q 353 606 342 590 q 331 573 331 305 q 331 37 329 23 q 327 8 319 4 q 310 0 275 0 q 240 0 235 26 q 233 39 233 306 q 233 572 223 589 q 213 605 149 611 q 84 618 70 625 q 55 633 55 662 q 55 690 77 696 q 100 702 290 702 l 364 702 z"},"P":{"x_min":0,"x_max":576,"ha":576,"o":"m 297 611 l 262 611 q 208 611 199 598 q 191 585 191 476 l 191 447 l 191 431 l 191 395 q 191 370 239 370 l 256 370 l 261 371 l 274 371 l 292 372 q 348 372 386 408 q 425 443 425 495 l 425 508 q 425 559 387 585 q 350 611 297 611 z m 83 193 q 83 374 101 620 q 103 656 109 666 q 114 676 129 680 q 199 697 330 697 l 350 697 q 428 697 476 651 q 523 604 523 518 q 523 431 452 361 q 414 324 371 311 q 328 297 272 290 q 215 283 207 279 q 183 265 183 196 l 182 186 q 182 175 182 165 l 181 144 q 181 133 181 122 q 181 43 172 22 q 162 2 122 2 q 81 2 81 23 l 81 33 q 82 53 82 63 l 83 85 q 83 106 83 128 l 83 149 z"},"|":{"x_min":0,"x_max":320,"ha":320,"o":"m 171 -167 l 145 -167 q 122 -167 122 -102 l 122 257 l 123 267 l 123 296 l 122 316 l 122 705 q 122 746 150 746 l 176 746 q 198 746 198 699 l 198 680 l 198 669 l 198 561 l 197 550 l 197 -136 q 195 -167 171 -167 z"},"t":{"x_min":0,"x_max":360,"ha":360,"o":"m 63 503 q 97 515 103 523 q 109 530 115 574 q 120 618 126 630 q 139 655 163 655 l 171 655 q 190 655 197 636 q 198 635 204 591 q 209 548 223 532 q 236 517 261 512 q 287 507 295 502 q 304 497 304 479 q 304 449 271 440 q 226 428 217 407 q 203 375 203 259 q 203 144 216 117 q 229 91 271 77 q 313 62 313 39 q 313 15 295 6 q 278 -2 239 -2 q 200 -2 172 15 q 143 33 126 68 q 110 103 110 239 q 110 375 102 401 q 93 427 68 438 q 43 448 43 472 q 43 497 63 503 z"},"M":{"x_min":0,"x_max":812,"ha":812,"o":"m 744 76 q 744 26 709 26 q 691 26 675 49 q 659 72 652 113 q 645 154 638 322 q 631 490 618 490 q 604 490 495 214 q 452 107 447 98 q 429 64 401 64 q 373 64 351 108 l 341 130 q 333 150 322 177 l 304 224 q 285 270 266 317 q 194 493 183 493 q 169 493 164 329 q 159 165 150 113 q 141 62 126 45 q 111 29 100 29 q 69 29 69 94 l 69 116 l 70 138 l 71 161 q 81 307 85 464 q 90 621 92 634 q 101 678 144 678 q 187 678 231 606 q 251 573 326 397 q 400 221 411 221 l 421 237 l 450 307 q 544 546 576 600 q 609 655 627 668 q 645 681 666 681 q 711 681 720 638 q 722 628 727 458 q 732 287 738 205 q 744 122 744 97 z"},"g":{"x_min":0,"x_max":555,"ha":555,"o":"m 261 96 l 269 96 l 273 97 q 294 97 318 112 q 341 127 361 161 q 380 195 380 269 l 380 285 q 380 357 356 400 q 332 442 282 442 l 274 442 q 231 442 198 397 q 165 351 165 274 l 165 258 q 165 193 192 145 q 219 96 261 96 z m 465 271 q 465 215 473 126 q 481 37 481 19 l 481 5 q 481 -80 427 -135 q 399 -164 359 -180 q 319 -196 275 -196 l 260 -196 q 193 -196 136 -167 q 80 -137 80 -104 q 80 -81 110 -81 q 119 -81 170 -99 q 220 -118 272 -118 q 325 -118 360 -79 q 395 -40 395 35 q 395 54 388 54 q 384 54 369 44 q 354 34 333 26 q 312 17 271 17 q 186 17 131 87 q 106 118 90 167 q 74 216 74 275 l 74 306 q 74 394 122 456 q 146 486 180 505 q 215 523 253 523 q 292 523 313 513 q 335 503 354 492 q 372 481 381 481 l 386 484 q 405 498 428 498 q 451 498 459 485 q 468 473 468 420 l 466 363 l 466 334 l 465 320 z"},"j":{"x_min":0,"x_max":272,"ha":272,"o":"m 188 325 l 188 47 q 188 -87 155 -141 q 136 -171 103 -188 q 70 -204 36 -204 l 27 -204 q -30 -204 -30 -169 q -30 -146 -20 -137 q -9 -127 19 -120 q 48 -113 62 -103 q 76 -92 86 -64 q 96 -36 96 131 q 96 298 95 325 q 93 352 87 401 q 82 451 82 471 q 82 492 93 501 q 104 510 139 510 l 155 510 q 175 510 181 466 q 188 421 188 325 z m 83 666 q 83 713 121 713 l 123 714 l 125 714 l 143 716 l 148 716 l 161 715 l 174 712 q 197 712 197 686 q 199 678 199 675 l 199 667 l 199 660 q 199 614 167 614 l 158 612 l 146 610 l 130 610 l 115 612 q 86 612 86 639 q 84 645 84 647 l 83 659 z"},"i":{"x_min":0,"x_max":262,"ha":262,"o":"m 152 512 q 172 512 176 481 q 178 467 178 371 l 178 218 l 181 158 q 182 146 182 140 l 183 128 l 183 103 l 183 66 q 183 24 177 13 q 170 1 139 1 l 122 1 q 94 1 88 15 q 82 28 82 62 l 82 102 l 83 132 q 83 139 83 145 l 84 157 q 85 163 85 175 l 86 193 l 86 307 l 85 326 l 85 338 l 85 357 l 85 369 q 84 381 84 387 l 81 428 l 79 439 q 77 462 77 462 l 77 480 q 77 511 119 511 l 130 512 z m 75 670 q 75 715 109 715 q 113 717 116 717 l 128 718 l 146 718 l 167 715 q 188 715 188 688 l 189 687 l 189 685 l 191 668 l 191 667 l 190 665 l 189 650 q 188 648 188 646 q 188 615 153 615 l 142 613 l 138 613 l 129 613 l 127 613 l 125 613 l 122 613 l 110 614 q 104 616 102 616 q 78 616 78 639 q 77 644 77 646 l 75 657 z"},"y":{"x_min":0,"x_max":505,"ha":505,"o":"m 158 447 q 171 421 213 291 q 255 162 258 162 q 268 162 312 297 q 357 433 367 455 q 391 508 428 508 q 455 508 455 493 l 455 485 q 455 475 368 218 q 281 -39 268 -66 q 206 -195 116 -195 q 71 -195 71 -168 q 71 -146 88 -131 q 91 -128 135 -104 q 160 -90 182 -58 q 205 -25 205 25 q 205 76 130 263 q 55 450 55 478 q 55 505 92 505 q 128 505 158 447 z"},"@":{"x_min":0,"x_max":838,"ha":838,"o":"m 662 17 q 662 -12 583 -43 q 505 -75 428 -75 q 269 -75 168 29 q 65 135 65 311 q 65 372 94 449 q 150 605 322 668 q 374 688 445 688 q 584 688 673 607 q 772 517 772 372 q 772 313 755 266 q 719 171 658 138 q 624 119 593 119 q 562 119 544 128 l 513 150 q 497 150 458 133 q 419 116 381 116 q 327 116 293 158 q 259 200 259 253 q 259 334 303 390 q 348 446 400 446 q 415 446 439 440 q 452 438 463 436 l 453 436 q 406 436 363 379 q 319 323 319 254 l 319 234 q 319 199 337 175 q 354 151 377 151 l 384 151 q 421 151 456 208 q 501 283 501 346 q 504 370 504 375 l 504 390 q 504 412 492 424 q 484 432 475 435 q 479 434 483 434 l 502 438 q 536 450 541 450 q 561 450 568 438 q 575 426 575 375 l 568 280 l 567 256 q 567 213 583 199 l 598 192 q 638 192 674 243 q 709 294 709 375 q 709 482 635 554 q 562 626 435 626 q 308 626 218 530 q 128 434 128 286 q 128 211 157 151 q 240 -27 439 -27 q 502 -27 568 -2 q 635 22 648 22 q 662 22 662 17 z"},".":{"x_min":0,"x_max":277,"ha":277,"o":"m 166 122 q 194 122 194 96 q 195 92 195 89 l 197 77 l 197 59 l 196 57 l 195 43 q 194 41 194 39 q 194 19 183 7 q 171 -4 137 -4 l 128 -4 q 84 -4 84 22 q 83 28 83 30 l 81 43 l 81 61 l 82 70 l 83 81 q 83 122 126 122 l 139 124 l 154 124 q 160 122 166 122 z"},"p":{"x_min":0,"x_max":562,"ha":562,"o":"m 280 74 l 289 74 q 332 74 366 120 q 400 166 400 230 l 401 241 l 401 258 l 401 264 l 401 270 q 401 338 373 387 q 346 436 302 436 l 289 436 q 246 436 217 396 q 188 356 188 292 l 187 282 l 186 261 l 186 224 l 188 192 q 188 136 215 105 q 241 74 280 74 z m 74 -158 l 74 -112 l 75 -101 q 75 -41 84 95 q 93 230 93 289 l 94 312 l 94 334 q 94 346 94 358 l 95 393 q 95 472 100 481 q 110 501 145 501 q 164 501 177 482 q 189 464 193 464 q 197 464 213 475 q 271 518 315 518 l 326 518 q 366 518 401 496 q 437 475 461 438 q 496 387 496 290 l 496 264 q 496 213 479 161 q 444 60 370 21 q 329 0 277 0 q 256 0 219 9 q 182 19 180 19 q 167 19 167 -44 l 171 -141 q 171 -170 160 -182 q 148 -193 121 -193 q 93 -193 84 -184 q 74 -176 74 -158 z"},"X":{"x_min":0,"x_max":611,"ha":611,"o":"m 73 689 q 73 703 117 703 q 162 703 189 668 q 205 648 256 553 q 306 458 314 458 q 317 458 365 547 q 412 635 438 669 q 463 703 492 703 l 506 703 q 539 703 539 694 q 539 682 455 539 q 371 396 371 375 q 371 354 462 192 q 553 29 553 18 q 553 0 508 0 q 463 0 439 31 q 423 52 364 160 q 305 269 297 269 q 296 269 236 161 q 176 53 161 34 q 134 0 88 0 q 57 0 57 10 q 57 19 150 182 q 243 345 243 362 q 243 370 158 524 q 73 679 73 689 z"},"*":{"x_min":0,"x_max":452,"ha":452,"o":"m 105 455 q 105 467 114 478 l 126 490 q 132 496 142 510 q 151 524 151 527 q 151 530 130 540 q 109 550 102 558 q 80 584 80 605 q 80 623 111 623 q 120 623 156 604 q 191 585 192 585 q 201 585 201 595 q 201 601 198 637 l 196 656 q 194 674 194 683 q 194 707 229 707 q 254 707 259 697 q 264 688 264 659 l 253 585 q 253 580 261 580 q 262 580 293 598 q 325 617 339 617 q 375 617 375 594 q 375 569 357 548 q 352 541 329 532 q 307 523 307 519 q 308 513 308 505 q 308 498 324 477 q 339 457 339 442 q 339 412 324 412 l 273 420 q 268 420 260 406 q 252 392 244 392 l 223 395 l 216 394 l 204 391 q 192 391 187 407 q 181 423 170 423 l 130 420 q 105 420 105 455 z"},"Y":{"x_min":0,"x_max":597,"ha":597,"o":"m 85 703 l 96 703 q 96 703 97 703 q 136 703 162 668 q 188 633 242 517 q 296 400 306 400 q 310 400 365 518 q 421 635 447 668 q 474 701 520 701 q 542 701 542 693 l 542 686 q 542 683 453 505 q 364 327 361 319 q 347 277 347 157 q 347 37 341 19 q 335 0 298 0 l 287 0 q 257 0 251 12 q 249 19 249 148 q 249 154 249 159 q 249 280 237 310 q 226 341 141 504 q 56 667 56 681 q 56 703 85 703 z"},"c":{"x_min":0,"x_max":503,"ha":503,"o":"m 449 429 q 449 417 438 404 q 428 392 414 392 q 401 392 354 414 q 308 436 277 436 q 209 436 177 384 q 145 332 145 254 q 145 177 182 128 q 220 79 285 79 q 320 79 368 103 q 416 127 428 127 q 457 127 457 94 q 457 62 399 31 q 342 1 282 1 l 271 1 q 122 1 67 141 q 49 186 49 234 l 49 259 q 49 367 114 438 q 178 509 281 509 l 292 509 q 350 509 400 486 q 449 462 449 429 z"},"!":{"x_min":0,"x_max":306,"ha":306,"o":"m 110 91 q 110 120 148 120 l 162 120 q 201 120 201 88 l 202 84 l 204 67 l 204 44 l 200 20 q 200 -3 174 -3 q 170 -4 168 -4 l 162 -5 l 151 -5 l 138 -3 q 110 -3 110 27 q 109 31 109 33 l 108 46 l 108 50 l 107 57 l 107 66 l 108 68 l 108 72 l 110 87 q 110 89 110 91 z m 146 710 l 168 710 q 193 710 200 698 q 208 685 208 653 l 208 642 l 207 635 l 207 605 l 207 599 l 207 587 l 201 443 l 200 413 l 199 407 l 199 395 l 197 365 l 196 341 q 195 329 195 323 l 194 311 l 193 287 l 193 281 l 192 263 q 192 223 186 209 q 179 196 155 196 l 150 196 q 134 196 126 208 q 119 219 119 276 l 117 318 l 116 342 q 114 366 114 378 l 110 469 q 110 475 110 480 l 108 522 l 108 535 l 106 577 l 106 589 l 106 595 l 106 619 l 105 643 l 105 649 q 105 690 114 700 q 123 710 146 710 z"},"/":{"x_min":0,"x_max":402,"ha":402,"o":"m 55 -65 l 47 -65 q 17 -65 17 -54 q 17 -46 42 18 q 66 82 79 116 q 92 150 116 211 q 140 273 149 299 q 159 326 191 409 q 223 492 256 583 q 289 674 302 703 q 315 731 342 731 l 350 731 q 381 731 381 723 q 381 716 257 382 q 132 47 97 -33 q 83 -65 55 -65 z"},"[":{"x_min":0,"x_max":345,"ha":345,"o":"m 244 734 l 266 734 q 300 734 300 714 q 300 691 290 681 q 279 672 237 664 q 195 656 187 635 q 179 613 179 299 q 179 -16 185 -40 q 191 -64 202 -72 q 213 -79 246 -86 q 279 -93 290 -101 q 301 -110 301 -132 q 301 -154 268 -154 l 235 -154 q 132 -154 114 -139 q 96 -124 96 -24 l 96 626 q 96 703 115 718 q 134 734 244 734 z"},"6":{"x_min":0,"x_max":569,"ha":569,"o":"m 400 209 l 400 219 q 400 279 372 322 q 345 365 299 365 l 288 365 q 237 365 211 326 q 184 288 184 237 l 184 218 q 184 160 215 114 q 247 69 290 69 l 298 69 l 302 69 q 342 69 371 111 q 400 153 400 209 z m 454 646 q 454 628 379 617 q 304 606 264 572 q 190 509 190 434 q 190 407 218 407 q 221 406 243 414 q 265 422 302 422 q 338 422 375 405 q 446 374 479 299 q 500 250 500 204 l 500 191 q 500 103 450 50 q 399 -2 327 -2 l 314 -2 q 203 -2 132 94 q 103 132 85 190 q 66 248 66 316 l 66 329 q 66 393 88 460 q 110 527 151 577 q 191 626 248 653 q 306 679 363 679 q 420 679 437 667 q 454 656 454 646 z"},"r":{"x_min":0,"x_max":382,"ha":382,"o":"m 73 25 l 73 48 l 74 56 l 74 72 l 74 234 q 74 438 77 458 q 81 479 89 489 q 97 500 125 500 q 152 500 164 491 q 177 482 185 469 q 192 454 195 454 q 198 454 210 465 q 259 508 297 508 q 356 508 356 467 q 356 434 342 424 q 328 414 289 414 q 250 414 232 404 q 203 387 185 347 q 167 308 167 172 q 167 37 159 19 q 151 1 102 1 l 95 1 q 73 1 73 25 z"},"2":{"x_min":0,"x_max":563,"ha":563,"o":"m 230 7 q 106 7 94 9 q 67 15 67 39 q 67 75 110 131 q 152 187 237 272 q 322 357 353 403 q 383 450 383 501 q 383 552 353 580 q 322 608 277 608 q 232 608 182 578 q 99 528 95 528 q 68 528 68 555 q 68 602 136 648 q 204 695 278 695 l 293 695 q 330 695 367 682 q 443 654 470 579 q 481 548 481 504 q 481 439 429 366 q 399 325 300 228 q 200 130 200 107 q 200 88 309 88 q 417 88 456 79 q 494 70 494 47 q 494 27 486 15 q 479 2 456 2 l 442 2 l 338 7 z"},"{":{"x_min":0,"x_max":367,"ha":367,"o":"m 96 334 q 117 345 131 368 q 145 391 145 466 l 142 553 q 142 643 182 689 q 223 735 298 735 l 309 735 q 324 735 324 720 q 324 695 316 685 q 307 674 280 659 q 252 645 238 623 q 225 602 225 539 l 228 452 q 228 393 214 365 q 201 336 190 327 q 179 317 161 303 q 143 290 143 289 q 143 286 156 278 q 194 253 211 220 q 228 188 228 115 l 225 28 q 225 -21 238 -45 q 250 -68 287 -89 q 324 -110 324 -141 q 324 -160 303 -160 l 292 -160 q 256 -160 225 -145 q 194 -131 175 -106 q 142 -64 142 29 l 145 129 q 145 181 131 207 q 117 233 90 245 q 49 264 49 286 q 49 307 55 314 q 60 320 76 327 q 93 333 96 334 z"},"9":{"x_min":0,"x_max":568,"ha":568,"o":"m 172 491 l 172 473 q 172 410 202 371 q 232 332 273 332 l 281 332 l 285 333 q 325 333 356 364 q 388 396 388 456 l 388 479 q 388 542 354 585 q 321 628 281 628 l 273 628 q 233 628 203 589 q 172 550 172 491 z m 187 79 q 308 94 358 187 q 380 226 380 256 q 380 287 353 287 q 349 287 326 280 q 301 273 276 273 q 236 273 198 291 q 116 328 86 420 q 73 460 73 505 q 73 595 124 647 q 175 700 256 700 q 312 700 358 674 q 450 624 486 507 q 504 449 504 381 l 504 368 q 504 298 479 228 q 455 158 413 112 q 372 65 316 41 q 261 17 210 17 q 160 17 136 28 q 112 38 112 54 q 112 70 187 79 z"}," ":{"x_min":0,"x_max":297,"ha":297,"o":""},"I":{"x_min":0,"x_max":301,"ha":301,"o":"m 85 625 l 85 643 q 85 681 102 695 q 111 703 144 703 l 174 703 q 216 703 216 643 l 216 625 q 216 610 208 568 q 200 526 200 472 l 200 203 q 200 173 208 132 q 216 90 216 69 l 216 61 q 216 28 206 14 q 195 0 167 0 l 136 0 q 108 0 97 16 q 85 31 85 69 l 85 78 q 86 98 94 138 q 102 178 102 231 l 102 482 l 101 500 q 101 529 93 568 q 85 607 85 625 z"},"H":{"x_min":0,"x_max":674,"ha":674,"o":"m 599 62 q 599 27 593 21 q 586 14 561 14 q 536 14 524 22 q 512 30 503 60 q 495 90 495 230 q 495 309 477 322 q 450 343 315 343 q 229 343 214 315 q 207 302 207 198 q 207 94 194 62 q 180 29 138 29 q 95 29 89 56 q 82 90 82 252 q 82 415 81 433 l 80 486 l 75 556 l 75 619 q 75 668 82 678 q 88 688 102 688 l 118 688 q 159 688 172 651 q 180 628 180 493 q 180 414 197 400 q 222 382 325 382 q 428 382 452 402 q 467 416 467 519 q 467 622 481 650 q 495 678 544 678 q 578 678 583 645 q 593 581 593 324 l 594 215 q 594 180 595 162 l 599 94 z"},"4":{"x_min":0,"x_max":574,"ha":574,"o":"m 342 548 q 342 554 341 554 l 340 554 l 294 484 q 292 481 290 477 l 280 462 q 224 379 216 365 q 207 350 176 306 q 144 262 144 260 q 144 259 216 259 l 231 258 l 239 258 l 243 259 l 281 261 q 285 261 301 261 q 316 261 325 269 q 334 276 334 312 l 335 337 q 335 342 335 346 l 336 355 l 336 372 l 336 380 q 336 385 336 389 l 337 407 l 337 415 l 338 433 q 338 437 338 441 l 339 445 q 339 450 339 454 l 339 458 q 339 463 339 467 l 341 498 q 341 502 341 506 l 341 511 q 341 515 341 520 l 342 537 z m 379 1 l 369 1 q 343 1 343 55 l 344 76 q 344 86 344 96 q 344 148 332 159 q 312 174 211 174 q 109 174 85 183 q 61 191 61 226 l 61 235 q 61 283 313 645 q 337 679 351 688 q 365 698 392 698 q 419 698 427 690 q 435 682 435 646 l 435 635 q 434 625 434 613 l 430 516 l 429 494 l 427 396 q 427 296 435 282 q 442 269 467 260 q 491 251 500 242 q 509 234 509 215 l 509 207 q 509 187 489 180 l 481 178 l 464 174 q 449 170 442 164 q 436 157 436 125 l 438 42 q 438 16 426 9 q 414 1 379 1 z"},"~":{"x_min":0,"x_max":583,"ha":583,"o":"m 408 259 l 390 259 q 359 259 284 301 q 209 342 180 342 q 151 342 121 306 q 90 270 69 270 q 48 270 48 294 l 48 300 q 48 341 91 380 q 135 419 187 419 l 193 418 q 230 418 304 377 q 378 335 405 335 q 432 335 462 371 q 492 407 513 407 q 535 407 535 382 l 535 376 q 535 335 492 297 q 450 259 408 259 z"},"D":{"x_min":0,"x_max":678,"ha":678,"o":"m 301 616 l 273 616 q 213 616 209 594 q 208 591 208 575 l 208 551 l 209 536 q 209 528 209 521 l 210 491 l 210 460 l 210 445 l 210 277 l 210 262 l 210 247 l 209 208 l 209 193 l 207 119 q 207 100 220 94 q 234 87 267 87 l 294 87 q 385 87 439 157 q 468 193 483 243 q 498 293 498 343 l 498 377 q 498 424 483 472 q 455 565 384 599 q 347 616 301 616 z m 107 662 q 107 689 126 695 q 146 701 240 701 l 270 702 l 301 702 q 505 702 576 518 q 602 450 602 371 l 602 358 q 602 184 502 81 q 460 38 406 19 q 353 0 273 0 l 223 0 q 151 0 129 6 q 106 13 106 37 l 106 48 l 109 103 q 111 158 111 170 l 112 215 l 113 271 l 113 294 l 114 316 l 114 396 l 113 430 l 113 463 l 113 475 q 113 486 113 497 l 108 629 l 107 641 q 107 651 107 662 z"},"^":{"x_min":0,"x_max":545,"ha":545,"o":"m 78 355 l 62 355 q 49 355 49 361 q 49 376 214 658 q 243 707 268 707 l 276 707 q 304 707 327 667 q 496 378 496 364 q 496 356 470 356 q 430 356 401 394 q 383 418 330 517 q 277 616 271 616 q 270 616 210 510 q 150 404 145 396 q 115 355 78 355 z"},"0":{"x_min":0,"x_max":572,"ha":572,"o":"m 405 337 l 405 377 q 405 489 373 557 q 341 624 291 624 l 285 624 q 262 624 240 606 q 218 587 202 551 q 170 478 170 358 l 170 326 q 170 214 201 143 q 246 83 286 72 q 339 72 372 141 q 405 210 405 337 z m 298 -10 l 271 -10 q 233 -10 195 14 q 117 62 90 179 q 73 253 73 310 l 73 375 q 73 438 90 505 q 125 639 204 685 q 240 706 286 706 l 294 706 q 387 706 444 618 q 472 575 487 508 q 502 441 502 375 l 502 341 q 502 267 487 200 q 458 71 385 20 q 344 -10 298 -10 z"},"F":{"x_min":0,"x_max":527,"ha":527,"o":"m 340 697 l 423 698 l 450 698 q 489 698 489 671 l 489 661 q 489 643 452 632 q 416 622 318 622 q 220 622 205 608 q 184 591 184 479 q 184 437 197 428 q 210 418 287 413 q 365 407 390 398 q 425 387 425 358 q 425 328 406 320 q 401 318 314 307 q 227 297 208 283 q 188 269 188 170 q 188 71 178 45 q 169 19 137 19 q 104 19 97 26 q 90 34 90 52 l 100 277 q 100 396 92 496 q 84 596 84 625 q 84 653 94 666 q 104 679 137 688 q 170 697 340 697 z"},"`":{"x_min":0,"x_max":372,"ha":372,"o":"m 128 735 q 166 735 181 717 q 196 699 229 645 q 261 591 261 583 l 261 581 q 261 570 235 570 l 233 570 q 206 570 174 598 q 143 626 86 698 q 74 714 74 722 l 74 726 q 74 733 98 733 q 103 734 106 734 l 120 735 z"},"k":{"x_min":0,"x_max":515,"ha":515,"o":"m 105 732 l 119 732 q 146 732 155 711 q 164 689 164 638 l 165 607 l 165 514 l 166 467 q 166 315 175 315 q 193 315 258 380 q 323 445 339 457 q 373 481 408 481 q 442 481 442 470 q 442 464 375 392 q 308 319 308 295 q 308 259 399 142 q 491 24 491 14 q 491 7 446 7 q 401 7 373 36 q 355 54 292 144 q 230 234 217 234 q 192 234 192 137 q 192 83 177 59 q 161 35 124 35 q 87 35 83 62 q 73 118 73 448 l 73 542 l 72 574 q 72 605 72 636 l 71 651 l 70 696 q 70 732 105 732 z"},"u":{"x_min":0,"x_max":548,"ha":548,"o":"m 62 451 q 62 502 83 502 l 95 502 q 141 502 153 467 q 162 444 162 312 q 162 179 176 140 q 190 101 212 87 q 234 74 263 74 q 293 74 322 94 q 352 115 368 154 q 385 192 385 320 q 385 448 397 473 q 409 498 464 498 q 484 498 484 447 l 484 389 q 484 366 482 341 l 480 315 q 477 256 477 155 q 477 54 473 43 q 463 20 417 20 q 400 20 389 38 q 378 55 370 55 q 368 55 349 42 q 287 1 241 1 q 240 1 240 1 l 227 1 q 187 1 153 19 q 120 37 100 68 q 68 118 68 250 l 62 428 l 62 439 z"},"]":{"x_min":0,"x_max":344,"ha":344,"o":"m 48 -132 q 48 -113 62 -103 q 75 -94 104 -88 q 133 -83 145 -77 q 157 -70 163 -49 q 169 -28 169 291 q 169 609 161 633 q 153 656 111 666 q 68 677 58 684 q 49 692 49 715 q 49 733 72 733 l 112 733 q 186 733 208 725 q 230 718 236 701 q 246 675 246 281 q 246 269 246 257 l 247 208 l 247 -26 q 247 -122 223 -138 q 200 -155 86 -155 l 77 -154 q 48 -154 48 -132 z"},"U":{"x_min":0,"x_max":663,"ha":663,"o":"m 148 688 q 160 680 167 655 q 175 631 175 435 q 175 428 175 422 l 175 417 q 175 212 197 162 q 237 70 338 70 q 383 70 420 95 q 457 120 478 174 q 500 228 500 420 q 500 613 508 644 q 517 676 529 686 q 542 697 565 697 q 595 697 595 666 l 589 537 l 588 503 q 588 486 588 469 l 588 435 l 588 336 q 588 255 581 200 q 565 79 469 25 q 411 -7 338 -7 l 319 -7 q 318 -7 317 -7 q 257 -7 205 19 q 97 71 81 217 q 77 252 77 425 l 75 592 l 71 656 q 71 688 77 692 q 84 696 110 696 q 137 696 148 688 z"},"o":{"x_min":0,"x_max":564,"ha":564,"o":"m 403 246 l 403 270 q 402 280 402 286 q 402 346 368 395 q 334 444 284 444 l 279 443 q 230 443 198 390 q 167 336 167 260 l 167 254 l 167 249 q 167 182 196 128 q 211 99 235 84 q 259 69 277 69 l 296 69 q 312 69 335 83 q 358 97 374 126 q 403 177 403 246 z m 499 276 l 499 259 l 498 250 q 498 141 438 65 q 378 -10 284 -10 l 276 -10 q 231 -10 193 9 q 114 49 85 146 q 71 194 71 245 l 71 253 q 71 363 125 438 q 155 480 196 501 q 237 522 278 522 l 301 522 q 339 522 376 504 q 453 466 482 374 q 499 324 499 276 z"},"N":{"x_min":0,"x_max":682,"ha":682,"o":"m 74 37 l 74 54 l 78 131 q 79 157 79 232 l 79 272 l 79 417 q 79 651 81 659 q 85 685 113 685 q 140 685 163 671 q 186 658 215 621 q 245 584 373 389 q 501 194 514 194 q 518 194 518 394 q 518 593 529 643 q 540 692 574 692 q 595 692 603 686 q 610 679 610 658 l 610 641 l 607 603 q 604 559 604 490 l 604 340 l 603 278 q 603 47 600 37 q 595 18 565 18 q 521 18 465 89 q 434 129 308 324 q 182 520 168 520 q 165 520 165 315 q 165 110 158 73 q 151 37 139 22 q 126 8 100 8 q 74 8 74 37 z"},"+":{"x_min":0,"x_max":589,"ha":589,"o":"m 81 297 l 81 325 q 81 353 98 357 q 107 360 180 360 q 253 360 255 362 q 258 365 258 452 q 258 539 262 552 q 266 566 294 566 l 303 566 q 326 566 329 548 q 331 540 331 454 q 331 368 333 364 q 335 360 411 360 q 487 360 498 357 q 509 353 509 333 l 509 313 q 509 286 491 281 q 483 279 409 279 q 335 279 333 277 q 331 274 331 186 q 331 98 328 88 q 323 72 293 72 q 262 72 260 89 q 258 102 258 188 q 258 273 252 276 q 247 279 164 279 q 81 279 81 297 z"},"G":{"x_min":0,"x_max":696,"ha":696,"o":"m 433 310 q 433 350 536 350 q 599 350 615 331 q 630 312 630 245 q 630 177 617 127 q 604 77 588 63 q 571 50 547 44 l 521 38 q 502 34 492 30 q 409 1 345 1 q 280 1 225 29 q 121 82 79 199 q 56 265 56 338 l 56 359 q 56 427 81 494 q 130 632 257 681 q 309 701 384 701 q 459 701 531 667 q 575 646 594 619 q 603 606 603 593 q 603 564 570 564 q 562 564 499 590 q 435 615 386 616 q 286 616 224 547 q 161 479 161 353 q 161 225 220 152 q 278 80 379 80 q 431 80 469 114 q 507 149 507 196 q 507 224 497 239 q 486 254 459 276 q 433 297 433 310 z"},"q":{"x_min":0,"x_max":563,"ha":563,"o":"m 383 242 l 383 285 q 383 365 359 403 q 335 441 282 441 l 278 441 q 232 441 199 391 q 166 341 166 269 l 166 246 q 166 170 198 123 q 229 76 274 76 l 278 76 q 325 76 358 122 q 381 153 381 215 q 383 235 383 242 z m 481 158 l 484 91 q 486 68 487 53 q 487 38 492 -26 q 496 -89 496 -123 l 496 -157 q 496 -177 486 -186 q 477 -194 448 -194 q 419 -194 409 -178 q 399 -161 399 -114 l 400 -93 l 400 -83 l 401 -61 l 401 -39 q 401 28 390 28 q 384 28 364 20 q 344 11 326 5 q 309 0 271 0 q 270 0 268 0 q 227 0 189 21 q 120 59 89 147 q 72 198 72 254 l 72 279 q 72 381 126 449 q 181 517 259 517 l 270 517 q 297 517 339 496 q 381 475 383 475 q 386 475 402 486 q 418 496 428 496 q 459 496 467 478 q 475 459 475 364 l 476 330 l 477 283 l 477 271 q 478 260 478 254 q 478 248 481 158 z"},"d":{"x_min":0,"x_max":564,"ha":564,"o":"m 289 442 l 275 442 q 233 442 200 392 q 167 343 167 273 l 167 239 q 168 229 168 223 q 168 161 205 111 q 231 75 271 75 l 284 75 q 302 75 325 89 q 349 103 362 127 q 383 167 383 261 l 383 272 l 383 277 l 383 282 l 382 309 q 382 370 357 406 q 332 442 289 442 z m 448 728 q 474 728 484 718 q 495 709 495 668 l 495 610 l 494 599 l 494 566 l 493 544 q 492 533 492 523 q 492 514 488 446 q 483 378 482 356 l 480 322 q 480 320 479 298 l 475 182 l 474 170 q 474 159 474 147 l 473 124 l 473 100 q 473 39 464 27 q 454 15 431 15 q 408 15 399 22 q 391 29 384 38 q 378 46 376 46 q 374 46 330 20 q 287 -6 249 -6 l 238 -6 q 208 -6 177 9 q 146 24 121 55 q 72 117 72 216 l 72 229 q 72 354 132 434 q 192 513 288 513 q 322 513 350 504 q 377 495 385 495 q 398 495 398 583 l 397 669 q 397 728 448 728 z"},"1":{"x_min":0,"x_max":537,"ha":537,"o":"m 345 338 q 345 268 348 241 q 351 215 364 174 q 377 133 377 108 l 377 89 q 377 49 353 15 q 342 0 312 0 l 295 0 q 256 0 241 23 q 217 58 217 109 q 217 128 229 167 l 235 183 q 244 211 245 213 q 252 244 252 363 q 252 482 227 526 q 217 544 175 553 q 133 562 133 583 q 133 603 167 623 q 272 685 298 685 q 324 685 332 660 q 341 635 341 584 q 344 528 344 507 l 345 468 l 345 448 l 345 428 z"},"5":{"x_min":0,"x_max":564,"ha":564,"o":"m 120 608 q 127 646 139 661 q 162 688 280 688 q 320 688 370 692 q 420 695 434 695 l 447 695 q 471 695 471 676 q 471 638 445 623 q 419 608 328 608 q 236 608 216 588 q 190 561 190 491 q 190 465 197 456 q 204 446 228 446 l 257 447 q 365 447 429 388 q 494 329 494 237 l 494 221 q 494 172 473 127 q 432 36 335 6 q 299 -5 257 -5 l 240 -5 q 184 -5 125 23 q 65 50 65 77 q 65 118 110 118 q 113 118 167 96 q 221 74 260 74 q 317 74 359 114 q 400 153 400 220 q 400 288 359 325 q 318 362 236 362 l 163 357 q 132 357 115 378 q 98 398 98 441 q 98 484 120 608 z"}}}
